<svg xmlns="http://www.w3.org/2000/svg" fill="none" viewBox="-0.5 -0.5 24 24" id="React-Query-Icon--Streamline-Svg-Logos.svg" height="24" width="24"><desc>React Query Icon Streamline Icon: https://streamlinehq.com</desc><path fill="#00435B" d="m14.137429166666667 13.948972916666667 -0.43196875 0.7501354166666666c-0.13014166666666668 0.22595104166666669 -0.37104270833333336 0.36522083333333333 -0.6318052083333334 0.36522083333333333H9.764386458333334c-0.2607625 0 -0.5016635416666667 -0.13926979166666667 -0.6318052083333334 -0.36522083333333333l-0.43201666666666666 -0.7501354166666666h5.436864583333334Zm1.2093687499999999 -2.0999 -0.7617072916666667 1.322571875h-6.3321875l-0.761659375 -1.322571875h7.855554166666668Zm-0.7337239583333334 -2.0534447916666667 0.7349458333333334 1.2761645833333335H7.490021875l0.7349218750000001 -1.2761645833333335h6.388130208333333Zm-1.53941875 -1.9412c0.2607625 0 0.5016635416666667 0.13926979166666667 0.6318052083333334 0.36522083333333333l0.4599520833333333 0.7986510416666667H8.672605208333334l0.45997604166666667 -0.7986510416666667c0.13014166666666668 -0.22595104166666669 0.37104270833333336 -0.36522083333333333 0.6318052083333334 -0.36522083333333333h3.30926875Z" stroke-width="1"></path><path fill="#002B3B" d="M4.948090625 7.506457291666667c-0.36658645833333336 -1.7775645833333336 -0.4452416666666667 -3.1409375 -0.20829375 -4.130919791666667 0.14092291666666665 -0.5888 0.3985708333333333 -1.0691310416666668 0.7903614583333334 -1.4156811458333334 0.4136166666666667 -0.36586531250000004 0.9365552083333334 -0.5453970833333334 1.5241333333333333 -0.5453970833333334 0.9693541666666667 0 1.9883500000000003 0.44203125 3.0773520833333334 1.2817636458333335 0.4441875 0.34253229166666666 0.90519375 0.7553822916666667 1.3839531250000001 1.2387895833333336 0.03811770833333333 -0.04906666666666667 0.08119479166666667 -0.09533020833333333 0.12918333333333334 -0.13809583333333333 1.3535739583333335 -1.2062302083333334 2.4931520833333334 -1.9556612500000001 3.4678489583333336 -2.2446227083333334 0.5795520833333334 -0.17181479166666666 1.12369375 -0.18818552083333334 1.6192 -0.02143072916666667 0.523034375 0.17601947916666666 0.9397895833333334 0.5398746875 1.2338302083333332 1.0495211458333333 0.4852520833333333 0.8411052083333334 0.6132135416666666 1.9463270833333333 0.4323041666666667 3.3109697916666665 -0.07374375000000001 0.556240625 -0.1998125 1.1621708333333334 -0.3779427083333333 1.8186770833333334 0.067203125 0.008121875 0.13457395833333333 0.023023958333333334 0.20127395833333334 0.045113541666666666 1.71738125 0.56910625 2.9334583333333333 1.181121875 3.669697916666667 1.8805614583333334 0.4380541666666667 0.4161322916666667 0.7240927083333334 0.8794145833333333 0.827496875 1.3922427083333333 0.10915416666666668 0.541290625 0.00273125 1.084234375 -0.29095 1.5934927083333332 -0.484365625 0.8398833333333333 -1.3749447916666668 1.5023072916666669 -2.64370625 2.0269708333333334 -0.50945 0.210665625 -1.0858635416666667 0.4014697916666667 -1.7298875 0.5730833333333333 0.029396875000000003 0.066340625 0.05218125 0.13680208333333332 0.06744270833333332 0.21073750000000002 0.36658645833333336 1.777540625 0.4452416666666667 3.140913541666667 0.20829375 4.130919791666667 -0.14092291666666665 0.5888 -0.39859479166666667 1.0691166666666667 -0.7903614583333334 1.4156739583333333 -0.4136166666666667 0.3658677083333333 -0.9365552083333334 0.5453875 -1.5241572916666668 0.5453875 -0.9693302083333333 0 -1.9883500000000003 -0.44203125 -3.0773520833333334 -1.2817708333333333 -0.44890729166666665 -0.34615 -0.9149927083333335 -0.7641510416666667 -1.3992385416666668 -1.2542187500000002 -0.049833333333333334 0.07793645833333333 -0.11099895833333334 0.1503625 -0.183353125 0.21485833333333335 -1.3535739583333335 1.2062062500000001 -2.4931520833333334 1.9556468749999998 -3.4678489583333336 2.2446083333333333 -0.5795520833333334 0.17180520833333332 -1.12369375 0.18816875 -1.6192 0.02141875 -0.523034375 -0.17602187500000002 -0.9397895833333334 -0.5398770833333334 -1.2338302083333332 -1.04951875 -0.4852520833333333 -0.8411052083333334 -0.6132135416666666 -1.946303125 -0.4323041666666667 -3.3109697916666665 0.076403125 -0.5763416666666668 0.20898854166666667 -1.2060385416666668 0.3974447916666667 -1.8900729166666668 -0.07364791666666667 -0.007451041666666667 -0.14763125 -0.023023958333333334 -0.22077604166666667 -0.04726979166666667 -1.71738125 -0.5691302083333334 -2.9334559375 -1.1811458333333333 -3.6697027083333333 -1.8805614583333334 -0.4380469791666667 -0.4161322916666667 -0.7240975000000001 -0.8794145833333333 -0.8275016666666667 -1.3922427083333333 -0.10914530208333334 -0.541290625 -0.002721666666666667 -1.084234375 0.29096916666666667 -1.5934927083333332 0.48435843749999996 -0.8398833333333333 1.3749471875 -1.5023072916666669 2.643696666666667 -2.0269708333333334 0.5246395833333334 -0.21696666666666667 1.1202677083333334 -0.4128260416666667 1.7876270833333334 -0.58836875 -0.023766666666666665 -0.05821875 -0.042550000000000004 -0.11940833333333334 -0.055703125000000006 -0.18318541666666666Z" stroke-width="1"></path><path fill="#FF4154" d="M16.923136458333335 15.606889583333334c0.170775 -0.030259375 0.33438645833333336 0.07923020833333333 0.372528125 0.24717812500000003l0.002084375 0.009942708333333335 0.018208333333333333 0.094515625c0.5902614583333333 3.1033468749999997 0.17446458333333334 4.655032291666667 -1.2474385416666667 4.655032291666667 -1.3911645833333335 0 -3.1621166666666665 -1.3240333333333334 -5.312832291666667 -3.9721479166666667 -0.04753333333333333 -0.05850625 -0.07316875 -0.131746875 -0.07252187500000001 -0.2071197916666667 0.0015572916666666667 -0.175590625 0.14245625 -0.317328125 0.31680104166666667 -0.3211375l0.010086458333333333 -0.00004791666666666667 0.11325104166666668 0.000790625c0.90505 0.004911458333333334 1.784871875 -0.026641666666666668 2.6394895833333334 -0.094659375 1.0088375 -0.080284375 2.0622854166666666 -0.21773333333333336 3.1603437500000005 -0.41234687500000006Zm-9.764985416666667 -2.3458322916666665 0.005438541666666667 0.0092 0.05682916666666667 0.0991875c0.4554239583333334 0.7917510416666667 0.9299187500000001 1.5432281250000002 1.4234604166666667 2.25443125 0.581253125 0.837559375 1.234884375 1.6854447916666668 1.9609177083333333 2.54365625 0.11231666666666668 0.13277708333333335 0.09947500000000001 0.329834375 -0.02721666666666667 0.4470385416666667l-0.008241666666666666 0.0073791666666666676 -0.07307291666666667 0.06286666666666667c-2.4021583333333334 2.0582843750000004 -3.9634510416666666 2.469169791666667 -4.683926041666667 1.2327041666666667 -0.7052135416666666 -1.210303125 -0.44953020833333335 -3.4109958333333332 0.76705 -6.602054166666667 0.0267375 -0.07012604166666667 0.076978125 -0.1288 0.1421447916666667 -0.16598333333333334 0.15232708333333334 -0.08694479166666667 0.3454552083333333 -0.03675208333333334 0.4366166666666667 0.11157395833333333ZM18.142112500000003 8.68178125l0.009846875 0.003210416666666667 0.09041875 0.031217708333333333C21.2074375 9.747639583333333 22.333958333333335 10.88115625 21.621892708333334 12.116735416666666c-0.6964208333333334 1.2084104166666667 -2.7209718750000005 2.08825625 -6.073677083333333 2.6395135416666666 -0.07477395833333333 0.012290625 -0.15148854166666667 -0.0020125 -0.21679895833333335 -0.04041770833333333 -0.15426770833333334 -0.09068229166666666 -0.20582604166666668 -0.28927291666666666 -0.11511979166666667 -0.4435645833333333 0.4801968750000001 -0.8168354166666667 0.9126927083333334 -1.6295979166666668 1.2974635416666667 -2.4382635416666667 0.43640104166666666 -0.9171489583333334 0.8459208333333335 -1.9015729166666668 1.2285833333333334 -2.9532718750000004 0.05802708333333333 -0.15946666666666667 0.22844270833333336 -0.24607604166666666 0.3898979166666667 -0.201825l0.009870833333333334 0.0028750000000000004Zm-10.473672916666667 -0.519296875c0.15426770833333334 0.09068229166666666 0.20582604166666668 0.28927291666666666 0.11511979166666667 0.4435645833333333 -0.4801968750000001 0.8168354166666667 -0.9126927083333334 1.6295979166666668 -1.2974635416666667 2.4382875 -0.43640104166666666 0.917125 -0.8459208333333335 1.9015489583333334 -1.2285833333333334 2.9532718750000004 -0.05920104166666666 0.16270104166666668 -0.23546250000000002 0.24955000000000002 -0.39976875000000006 0.1989260416666667l-0.009846875 -0.003210416666666667 -0.09041875 -0.031217708333333333C1.7924091666666666 13.130676041666668 0.6659003125 11.997159375 1.3779563541666668 10.761604166666666c0.6964136458333333 -1.208434375 2.7209790625 -2.0882802083333334 6.073684270833334 -2.6395375000000003 0.07477395833333333 -0.012290625 0.15146458333333335 0.0020125 0.21679895833333335 0.04041770833333333Zm9.519077083333334 -5.080172916666667c0.7052135416666666 1.210303125 0.44953020833333335 3.4109958333333332 -0.76705 6.602054166666667 -0.0267375 0.07012604166666667 -0.076978125 0.1288 -0.1421447916666667 0.16600729166666667 -0.15232708333333334 0.08692083333333334 -0.3454552083333333 0.036728125 -0.4366166666666667 -0.11159791666666667l-0.005438541666666667 -0.0092 -0.05682916666666667 -0.0991875c-0.4554239583333334 -0.7917510416666667 -0.9299187500000001 -1.5432281250000002 -1.4234604166666667 -2.25443125 -0.581253125 -0.8375354166666668 -1.234884375 -1.6854447916666668 -1.9609177083333333 -2.54365625 -0.11231666666666668 -0.13277708333333335 -0.09949895833333333 -0.329834375 0.02721666666666667 -0.4470385416666667l0.008241666666666666 -0.0073791666666666676 0.07304895833333333 -0.06286666666666667C14.905725000000002 2.2567432291666667 16.467041666666667 1.8458458333333334 17.187516666666667 3.0823114583333333ZM7.052830208333333 2.3457652083333334c1.3911885416666667 0 3.162140625 1.3240525 5.31285625 3.972143125 0.04753333333333333 0.05850625 0.07316875 0.131746875 0.07252187500000001 0.2071197916666667 -0.0015572916666666667 0.175590625 -0.14245625 0.317328125 -0.31680104166666667 0.3211375l-0.010086458333333333 0.000071875 -0.11325104166666668 -0.0008145833333333333c-0.90505 -0.004911458333333334 -1.784871875 0.026641666666666668 -2.6394895833333334 0.094659375 -1.0088375 0.08030833333333334 -2.0622854166666666 0.21775729166666669 -3.1603437500000005 0.41234687500000006 -0.170775 0.030259375 -0.33441041666666665 -0.07920625 -0.372528125 -0.2471541666666667l-0.002084375 -0.009966666666666667 -0.018208333333333333 -0.094515625c-0.5902854166666667 -3.1033468749999997 -0.17446458333333334 -4.6550275 1.2474145833333334 -4.6550275Z" stroke-width="1"></path><path fill="#FFD94C" d="M10.0303 7.895133333333334h2.7778010416666667c0.40623750000000003 0 0.7814489583333333 0.21727812500000002 0.9836572916666666 0.569609375l1.3947583333333333 2.430309375c0.20065104166666667 0.3496239583333334 0.20065104166666667 0.7794604166666668 0 1.1290604166666667l-1.3947583333333333 2.430309375c-0.20220833333333332 0.35233125 -0.5774197916666667 0.569609375 -0.9836572916666666 0.569609375H10.0303c-0.40623750000000003 0 -0.7814489583333333 -0.21727812500000002 -0.9836572916666666 -0.569609375l-1.3947822916666668 -2.430309375c-0.20062708333333334 -0.3496 -0.20062708333333334 -0.7794364583333333 0 -1.1290604166666667l1.3947822916666668 -2.430309375c0.20220833333333332 -0.35233125 0.5774197916666667 -0.569609375 0.9836572916666666 -0.569609375Zm2.354433333333333 0.7335322916666667c0.40645312499999997 0 0.7818322916666667 0.21749375 0.9839447916666668 0.5701364583333334l0.9726125 1.6967770833333335c0.20024375 0.3493364583333333 0.20024375 0.7786697916666667 0 1.1280062499999999l-0.9726125 1.6968010416666668c-0.2021125 0.35261875000000004 -0.5774916666666667 0.5701364583333334 -0.9839447916666668 0.5701364583333334h-1.9310895833333335c-0.40645312499999997 0 -0.7818083333333333 -0.21751770833333336 -0.9839447916666668 -0.5701364583333334l-0.9726125 -1.6968010416666668c-0.20024375 -0.3493364583333333 -0.20024375 -0.7786697916666667 0 -1.1280062499999999l0.9726125 -1.6967770833333335c0.20213645833333335 -0.35264270833333333 0.5774916666666667 -0.5701364583333334 0.9839447916666668 -0.5701364583333334h1.9310895833333335Zm-0.456334375 0.80226875h-1.0184208333333333c-0.4060458333333334 0 -0.7810895833333334 0.21706250000000002 -0.98339375 0.5691302083333334l-0.5139541666666667 0.8945083333333333c-0.20101041666666666 0.34986354166666667 -0.20101041666666666 0.7801791666666668 0 1.1300427083333335l0.5139541666666667 0.894484375c0.20230416666666667 0.35206770833333334 0.5773479166666667 0.5691302083333334 0.98339375 0.5691302083333334h1.0184208333333333c0.4060458333333334 0 0.7811135416666667 -0.21706250000000002 0.98339375 -0.5691302083333334l0.5139541666666667 -0.894484375c0.20101041666666666 -0.34986354166666667 0.20101041666666666 -0.7801791666666668 0 -1.1300427083333335l-0.5139541666666667 -0.8945083333333333c-0.20228020833333335 -0.35206770833333334 -0.5773479166666667 -0.5691302083333334 -0.98339375 -0.5691302083333334Zm-0.439371875 0.7679125c0.40573437500000004 0 0.7805625 0.21675104166666667 0.9829385416666666 0.5683874999999999l0.07288125000000001 0.12659583333333332c0.20158541666666668 0.35022291666666666 0.20158541666666668 0.78128125 0 1.1315041666666668l-0.07288125000000001 0.12659583333333332c-0.20237604166666667 0.3516604166666667 -0.5772041666666666 0.5683874999999999 -0.9829385416666666 0.5683874999999999h-0.13967708333333334c-0.40573437500000004 0 -0.7805385416666667 -0.21672708333333332 -0.9829385416666666 -0.5683874999999999l-0.07288125000000001 -0.12659583333333332c-0.20158541666666668 -0.35022291666666666 -0.20158541666666668 -0.78128125 0 -1.1315041666666668l0.07288125000000001 -0.12659583333333332c0.2024 -0.35163645833333335 0.5772041666666666 -0.5683874999999999 0.9829385416666666 -0.5683874999999999h0.13967708333333334Zm-0.06964687500000001 0.7564364583333334c-0.1805979166666667 0 -0.3471322916666667 0.09612083333333334 -0.4372875 0.25216145833333337 -0.09015520833333335 0.15599270833333334 -0.09015520833333335 0.3482822916666667 0 0.5042989583333334 0.09015520833333335 0.15601666666666666 0.2566895833333333 0.2521375 0.4369041666666667 0.2521375 0.1805979166666667 0 0.3471322916666667 -0.09612083333333334 0.4372875 -0.2521375 0.09015520833333335 -0.15601666666666666 0.09015520833333335 -0.34830625 0 -0.5042989583333334 -0.09015520833333335 -0.15604062500000002 -0.2566895833333333 -0.25216145833333337 -0.4369041666666667 -0.25216145833333337Zm-4.0915083333333335 0.5042989583333334h0.9079489583333333Z" stroke-width="1"></path></svg>